<?xml version="1.0" encoding="utf-8"?>
<!-- Generator: Adobe Illustrator 22.1.0, SVG Export Plug-In . SVG Version: 6.00 Build 0)  -->
<svg version="1.1" id="Lager_1" xmlns="http://www.w3.org/2000/svg" xmlns:xlink="http://www.w3.org/1999/xlink" x="0px" y="0px"
	 viewBox="0 0 199.5 332.1" style="enable-background:new 0 0 199.5 332.1;" xml:space="preserve">
<style type="text/css">
	.st0{fill:#F7B700;}
	.st1{fill:#DEDDDF;}
	.st2{fill:#FFFFFF;}
	.st3{fill:#BC1113;}
	.st4{fill:#E79C00;}
	.st5{fill:#E9BD87;}
	.st6{fill:#FAD199;}
	.st7{fill:#FBFBFC;}
</style>
<g>
	<path class="st0" d="M67.1,267.8c-0.1,0.2-0.1,0.5-0.2,0.9C67.1,268.2,67.1,267.8,67.1,267.8z"/>
	<path class="st1" d="M174.3,134.2c0,0,10,11.9,8.6,23.7c0,0-3.2-11.4-12.2-18.2c1.6,10.7,1,19.1-0.6,25.6c9,11.7,7.7,27.2,7.7,27.2
		c-1.6-9.4-6.9-17.3-9.8-21c-3.9,9.3-9.7,12.7-9.7,12.7c9.9,28.7-7.6,40.3-7.6,40.3c-0.2,4.6-1.2,7.3-1.9,8.7
		c1.3,4.3,0.7,9.6-2.2,15.7c0,0,4.1-15.2-7.1-20.6c-7.6-3.7-17.9,0.2-27.4-1.3c-11.7,4.3-20.6,1.2-23.8-0.3
		c-10,2.2-20.9-2.3-28.9,1.6c-11.2,5.4-7.1,20.6-7.1,20.6s-8-6.3-6.5-20.4c0,0-18.8-9.7-10.3-42.7c0,0-4-1.5-5.2-6.7
		c0,0-7.1,3.7-9.3,13.4c0,0-5.2-12.6,3.6-33.2c0,0-6.9,1.7-12.2,6.7c0,0-2.9-10.5,5.6-24.8c-10.7,12.3-12,27.2-12.5,34.3
		c0,0,6.1-7.7,14.8-11.4c0,0-1.4,2.4-3.3,6.6c-10.1,23.7-6.6,54.6-6.6,54.6c4.7-12,15.7-18.4,15.7-18.4c0,0,0,0,0,0
		c-0.4,1.2-8.8,24.5-4.4,47.2c1,5,3.3,9.7,7,13.4c2.5,2.5,4.4,3.4,4.4,3.4c2.3-10.6,11.4-17.4,11.4-17.4c-0.1,0.4-0.3,0.9-0.4,1.3
		c-1.6,5.4-7.1,26.9,3.2,42.3c7.5,8.5,18.4,9.3,18.4,9.3c-6-18,1.6-38.6,1.6-38.6c1.9,54.1,32.3,56.3,32.3,56.3s30.4-2.1,32.3-56.3
		c0,0,5.3,24.9-6.5,44.5c47.1-8,29.2-58.8,29.2-58.8c4.9,11.4,7.1,20.8,7.4,28.5c29.4-25.7,11-75.2,11-75.2
		c15.3,14.9,16.5,27.6,16.5,27.6c11.6-31.1-11.7-70.9-11.7-70.9c8.7,3.7,15.9,12,15.9,12c-1.2-15.8-8.9-30.5-15.8-40.8
		C176.6,134.3,175.5,134.1,174.3,134.2z M96.4,255c5.7,5.3,15.3,5.7,15.3,5.7c-26.5,8-35.9-20.1-35.9-20.1c23.6,17.5,49.2,0,49.2,0
		C114.1,256.2,96.4,255,96.4,255z"/>
	<path class="st2" d="M144.7,146.6c0,0-2.2,1.8-5.7,4.1c0.2,2.2-1.8,4.7-4.8,5.7c-2.2,0.8-4.5,0.6-6-0.2c-1.8,0.7-3.7,1.3-5.6,1.8
		C123.9,163.3,144.7,164.3,144.7,146.6z"/>
	<path class="st3" d="M52.2,77.9c4.4,0,10.5-3.1,12.4-8.3c0.7-1.8,0.7-3.3,0.4-4.6c-1.1,3.4-3.4,7-8,8.3c0,0,2.9-7.3-0.4-11.1
		c-6.4,2.4-12.3,5.3-17.4,8.6C42.1,75.1,46.8,77.9,52.2,77.9z"/>
	<path class="st4" d="M30.4,94.8l-11.8-46c-1.3-0.7-2.5-1.5-3.8-2.4l12.3,49.8C28,95.7,29.1,95.2,30.4,94.8z"/>
	<path class="st5" d="M35.4,168.5c10.5,16.1,17.7,16.4,11.3,28.4c0,0,1.7-5.3-2.8-10c0,0-7.5,14.6,0.9,26.6
		c6.5-14.8,29-11.9,29-11.9c-1.9-1.8-3.5-5.6-4.3-7.7c-2.2-0.7-5.6-1.1-10.3,0.3c0,0,4.1-5.9,13.3-6.3c0,0,2.7-6.3,12.6-7
		c0,0,11.4-19,1-21.9c0,0-8.7,16.2-26.4,8c0,0,6,1,11.7-2.5c0,0-19.8,4.5-20.6-19c0,0-9.6-5.6-15.6,4.1c0,0-0.7-16.2,13.2-19.1
		C65.2,127,76,157,93.3,148c0,0-0.4,6-5.2,8c0,0,12.4,3.5,2.6,28.3c-0.2,0.6-0.4,1.1-0.6,1.6c0,0,2.6,2.5,2.8,7.1
		c0,0-1.7-4.5-4.9-6.2c0,0-8.4-1.9-10.4,6.2c-2,8.1,9.9,11.4,11.9,9.9c0,0,2.5,6.4,9.9,6.5c7.5-0.1,9.9-6.5,9.9-6.5
		c2.1,1.5,13.9-1.8,11.9-9.9c-2-8.1-10.4-6.2-10.4-6.2c-3.2,1.8-4.9,6.2-4.9,6.2c0.2-4.6,2.8-7.1,2.8-7.1
		c-3.3-7.4-3.7-20.5-3.7-20.5c1.5,11.2,6.9,17.6,6.9,17.6c8.6-1.8,13.2,7.6,13.2,7.6c9.8-1.2,14.4,3.5,14.4,3.5
		c-9.2-2.7-13.3,1.3-13.3,1.3c-1.8,3.9-4,6.3-6.2,7.9c28-4.9,32.1,12.4,32.1,12.4c11.2-12.3,2.8-28.9,2.8-28.9
		c-4.5,4.7-2.8,10-2.8,10c-6.4-12,0.8-12.3,11.3-28.4c8.9-13.7,2.8-37.1,0.3-45.1c-10.5-3.3-29.7-6.6-64.3-6.6
		c-34.6,0-53.8,3.4-64.3,6.6C32.7,131.4,26.6,154.8,35.4,168.5z M150.2,130.4c13.9,2.9,13.2,19.1,13.2,19.1
		c-6-9.6-15.6-4.1-15.6-4.1c-0.8,23.5-20.6,19-20.6,19c5.8,3.4,11.7,2.5,11.7,2.5c-17.7,8.3-26.4-8-26.4-8c-3.6-0.1-5.9,3.1-5.9,3.1
		c0.9-4.8,4-6,4-6c-4.8-2-5.2-8-5.2-8C122.8,157,133.6,127,150.2,130.4z"/>
	<path class="st3" d="M129.9,59.4c0,10.2,7.5,18.5,16.7,18.5c0.1,0,0.1,0,0.2,0c2.4,0,4.1-1.1,5.2-2.7c-6,1.8-11.4-2.7-11.4-2.7
		c6.3-0.7,8.5-4.6,9.3-7c-0.2-0.1-0.3-0.2-0.5-0.2c-6-2.8-12.5-5.1-19.5-6.8C130,58.7,129.9,59.1,129.9,59.4z"/>
	<path class="st1" d="M52.5,228.4c4-4.9,11.5-7.1,20.6-5.4c11.6,2.3,19.3-1.4,23.3-4.2v-7c-1.4-0.3-3.2-0.9-5-2.2l0,0
		c0,0-42-12.4-39.1,15.1C52.2,224.7,52.1,226.5,52.5,228.4z"/>
	<path class="st4" d="M168,54.1c0.4,1.7,0.5,3.5,0.5,5.3c0,13-9.8,23.6-21.9,23.6c-12.1,0-21.9-10.6-21.9-23.6
		c0-5.7,1.9-11.1,5.2-15.3c-14.6-7.6-25.9-25-30.6-32.9v62.2l-9.8-40.9c0,0-8.4,7.8-20.8,11.6c3.3,4.2,5.2,9.7,5.2,15.3
		c0,13-9.8,23.6-21.9,23.6c-12.1,0-21.9-10.6-21.9-23.6c0-1.8,0.2-3.5,0.5-5.3c-2-0.6-4.9-1.7-8.2-3.2l10.9,42.8
		c11.2-3.5,31-6.8,65.8-6.8c51.2,0,70,7.2,76.7,11.7l13.1-56.1C181.3,49.3,172.5,52.7,168,54.1z"/>
	<path class="st2" d="M54.1,146.6c0,17.6,20.8,16.6,22.2,11.4c-1.9-0.5-3.8-1.1-5.6-1.8c-1.5,0.9-3.8,1-6,0.2
		c-3.1-1.1-5.1-3.5-4.8-5.7C56.3,148.5,54.1,146.6,54.1,146.6z"/>
	<path class="st4" d="M36.6,97.6c-1.7,0.5-3.1,1-4.4,1.4v20.5c1.3-0.5,2.8-0.9,4.4-1.3V97.6z"/>
	<path class="st1" d="M107.5,209.6L107.5,209.6c-1.8,1.3-3.6,1.9-5,2.2v7c3.9,2.8,11.7,6.5,23.3,4.2c9-1.8,16.5,0.4,20.6,5.4
		c0.4-1.9,0.2-3.7,0.2-3.7C149.5,197.3,107.5,209.6,107.5,209.6z"/>
	<path class="st4" d="M175.3,123.4v-19.7c-2.2-2.1-15.9-12.3-75.9-12.3c-29.8,0-48.2,2.5-59.4,5.3v20.7c11.9-2.8,30.5-5.1,59.4-5.1
		C148.7,112.2,167.9,118.9,175.3,123.4z"/>
	<path d="M110.7,156.1c0,0-3.1,1.2-4,6c0,0,2.2-3.2,5.9-3.1c0,0,8.7,16.2,26.4,8c0,0-6,1-11.7-2.5c0,0,19.8,4.5,20.6-19
		c0,0,9.6-5.6,15.6,4.1c0,0,0.7-16.2-13.2-19.1c-16.6-3.4-27.3,26.5-44.6,17.6C105.5,148,105.9,154,110.7,156.1z M128.1,156.2
		c1.5,0.9,3.8,1,6,0.2c3.1-1.1,5.1-3.5,4.8-5.7c3.5-2.3,5.7-4.1,5.7-4.1c0,17.6-20.8,16.6-22.2,11.4
		C124.4,157.5,126.3,156.9,128.1,156.2z"/>
	<path d="M179.8,128.2v-24.3l19.3-81.7l-7.4,9.8c-9.6,12.8-24.7,17.1-27.6,17.8l-2.7,0.7l0.9,2.6c0.7,2,1,4.1,1,6.2
		c0,2.4-0.4,4.8-1.2,6.9c-0.1,0-0.1-0.1-0.2-0.1c-9-5.7-19.6-10.1-31.1-12.9c1-3.2,2.8-6,5.2-8.2l3-2.8l-3.8-1.5
		C116.5,33.3,101.8,5,101.7,4.7l-2.3-4.5l-2.3,4.5C97,5,82.3,33.3,63.6,40.8l-3.8,1.5l3,2.8c2.4,2.2,4.2,5,5.2,8.2
		c-11.5,2.8-22.1,7.1-31.1,12.9c-0.1,0-0.1,0.1-0.2,0.1c-0.8-2.1-1.2-4.5-1.2-6.9c0-2.1,0.3-4.2,1-6.2l0.9-2.6l-2.7-0.7
		C31.7,49.1,16.6,44.8,7,32l-7.4-9.8L19,103.9v24.3c0,0.9,0.5,1.8,1.4,2.2c-23.8,23.6-19.6,58.6-19.6,58.6
		c3.2-8.8,13.7-16.6,13.7-16.6c-29.2,40.2-2.8,76.3-2.8,76.3c-0.2-9.3,3.2-18.2,5.7-23.5c-12.9,38.2,13.1,60.3,20.2,65.4
		c4.2,24.7,31.6,27.3,40.4,27.5c5,5.8,11.9,10.8,21.6,14c9.7-3.2,16.6-8.2,21.6-14c8.8-0.2,36.2-2.9,40.4-27.5
		c7.1-5.2,33-27.2,20.2-65.4c2.5,5.3,5.9,14.2,5.7,23.5c0,0,26.4-36.2-2.8-76.3c0,0,10.6,7.8,13.7,16.6c0,0,4.2-35-19.6-58.6
		C179.3,130.1,179.8,129.2,179.8,128.2z M149.5,65.2c0.2,0.1,0.3,0.2,0.5,0.2c-0.8,2.4-3,6.3-9.3,7c0,0,5.4,4.5,11.4,2.7
		c-1.1,1.6-2.9,2.7-5.2,2.7c-0.1,0-0.1,0-0.2,0c-9.2,0-16.7-8.3-16.7-18.5c0-0.3,0-0.7,0-1C137,60.1,143.5,62.4,149.5,65.2z
		 M56.5,62.2c3.3,3.9,0.4,11.1,0.4,11.1c4.6-1.4,6.9-4.9,8-8.3c0.3,1.3,0.3,2.8-0.4,4.6c-1.9,5.2-7.9,8.3-12.4,8.3
		c-5.3,0-10-2.8-13.1-7C44.2,67.5,50.1,64.6,56.5,62.2z M14.8,46.3c1.3,0.9,2.6,1.7,3.8,2.4l11.8,46c-1.2,0.5-2.3,0.9-3.3,1.4
		L14.8,46.3z M193.5,175.5c0,0-7.2-8.3-15.9-12c0,0,23.3,39.8,11.7,70.9c0,0-1.1-12.7-16.5-27.6c0,0,18.4,49.6-11,75.2
		c-0.3-7.7-2.6-17.1-7.4-28.5c0,0,17.9,50.8-29.2,58.8c11.8-19.7,6.5-44.5,6.5-44.5c-1.9,54.1-32.3,56.3-32.3,56.3
		S69,322,67.1,267.8c0,0-0.1,0.3-0.2,0.9c0-0.4,0.1-0.7,0.2-0.9c0,0-7.6,20.6-1.6,38.6c0,0-10.9-0.8-18.4-9.3
		c-10.3-15.4-4.8-36.9-3.2-42.3c0.1-0.4,0.3-0.9,0.4-1.3c0,0-9.2,6.8-11.4,17.4c0,0-2-1-4.4-3.4c-3.6-3.6-6-8.3-7-13.4
		c-4.4-22.7,4-46,4.4-47.2c0,0,0,0,0,0c0,0-11.1,6.3-15.7,18.4c0,0-3.4-30.9,6.6-54.6c1.9-4.1,3.3-6.6,3.3-6.6
		c-8.7,3.7-14.8,11.4-14.8,11.4c0.6-7.1,1.8-22,12.5-34.3c-8.5,14.2-5.6,24.8-5.6,24.8c5.3-5,12.2-6.7,12.2-6.7
		c-8.8,20.6-3.6,33.2-3.6,33.2c2.2-9.7,9.3-13.4,9.3-13.4c1.3,5.2,5.2,6.7,5.2,6.7c-8.5,33,10.3,42.7,10.3,42.7
		c-1.5,14,6.5,20.4,6.5,20.4s-4.1-15.2,7.1-20.6c8-3.9,18.9,0.6,28.9-1.6c3.2,1.5,12.1,4.6,23.8,0.3c9.6,1.5,19.8-2.4,27.4,1.3
		c11.2,5.4,7.1,20.6,7.1,20.6c3-6.1,3.5-11.4,2.2-15.7c0.8-1.4,1.7-4.1,1.9-8.7c0,0,17.5-11.6,7.6-40.3c0,0,5.7-3.4,9.7-12.7
		c2.9,3.7,8.2,11.5,9.8,21c0,0,1.3-15.5-7.7-27.2c1.6-6.4,2.2-14.8,0.6-25.6c8.9,6.8,12.2,18.2,12.2,18.2
		c1.4-11.8-8.6-23.7-8.6-23.7c1.2-0.1,2.3,0.1,3.3,0.5C184.5,145,192.2,159.8,193.5,175.5z M35.1,123.5c10.5-3.3,29.7-6.6,64.3-6.6
		c34.6,0,53.8,3.4,64.3,6.6c2.5,8,8.6,31.4-0.3,45.1c-10.5,16.1-17.7,16.4-11.3,28.4c0,0-1.7-5.3,2.8-10c0,0,8.5,16.6-2.8,28.9
		c0,0-4.1-17.4-32.1-12.4c2.1-1.6,4.3-4,6.2-7.9c0,0,4.2-4,13.3-1.3c0,0-4.6-4.8-14.4-3.5c0,0-4.7-9.4-13.2-7.6
		c0,0-5.4-6.4-6.9-17.6c0,0,0.4,13.2,3.7,20.5c0,0-2.6,2.5-2.8,7.1c0,0,1.7-4.5,4.9-6.2c0,0,8.4-1.9,10.4,6.2
		c2,8.1-9.9,11.4-11.9,9.9c0,0-2.5,6.4-9.9,6.5c-7.5-0.1-9.9-6.5-9.9-6.5c-2.1,1.5-13.9-1.8-11.9-9.9c2-8.1,10.4-6.2,10.4-6.2
		c3.2,1.8,4.9,6.2,4.9,6.2c-0.2-4.6-2.8-7.1-2.8-7.1c0.2-0.5,0.4-1,0.6-1.6c9.8-24.8-2.6-28.3-2.6-28.3c4.8-2,5.2-8,5.2-8
		C76,157,65.2,127,48.7,130.4c-13.9,2.9-13.2,19.1-13.2,19.1c6-9.6,15.6-4.1,15.6-4.1c0.8,23.5,20.6,19,20.6,19
		c-5.8,3.4-11.7,2.5-11.7,2.5c17.7,8.3,26.4-8,26.4-8c10.3,2.8-1,21.9-1,21.9c-9.9,0.7-12.6,7-12.6,7c-9.2,0.3-13.3,6.3-13.3,6.3
		c4.7-1.4,8.1-1,10.3-0.3c0.8,2,2.4,5.9,4.3,7.7c0,0-22.5-2.9-29,11.9c-8.4-12-0.9-26.6-0.9-26.6c4.5,4.7,2.8,10,2.8,10
		c6.4-12-0.8-12.3-11.3-28.4C26.6,154.8,32.7,131.4,35.1,123.5z M32.1,119.6V99c1.3-0.5,2.8-1,4.4-1.4v20.6
		C34.9,118.7,33.5,119.1,32.1,119.6z M40,117.3V96.7c11.2-2.8,29.6-5.3,59.4-5.3c60,0,73.7,10.2,75.9,12.3v19.7
		c-7.3-4.4-26.6-11.2-75.9-11.2C70.4,112.2,51.9,114.5,40,117.3z M146.3,228.4c-4-4.9-11.5-7.1-20.6-5.4
		c-11.6,2.3-19.3-1.4-23.3-4.2v-7c1.4-0.3,3.2-0.9,5-2.2l0,0c0,0,42-12.4,39.1,15.1C146.6,224.7,146.7,226.5,146.3,228.4z
		 M91.3,209.6L91.3,209.6c1.8,1.3,3.6,1.9,5,2.2v7c-3.9,2.8-11.7,6.5-23.3,4.2c-9-1.8-16.5,0.4-20.6,5.4c-0.4-1.9-0.2-3.7-0.2-3.7
		C49.4,197.3,91.3,209.6,91.3,209.6z M64.7,156.5c2.2,0.8,4.5,0.6,6-0.2c1.8,0.7,3.7,1.3,5.6,1.8c-1.4,5.3-22.2,6.3-22.2-11.4
		c0,0,2.2,1.8,5.7,4.1C59.6,152.9,61.6,155.4,64.7,156.5z M176.1,98.5c-6.7-4.4-25.5-11.7-76.7-11.7c-34.7,0-54.5,3.3-65.8,6.8
		L22.7,50.9c3.3,1.6,6.1,2.6,8.2,3.2c-0.4,1.7-0.5,3.5-0.5,5.3c0,13,9.8,23.6,21.9,23.6C64.2,83,74,72.4,74,59.4
		c0-5.7-1.9-11.1-5.2-15.3c12.4-3.8,20.8-11.6,20.8-11.6l9.8,40.9V11.1c4.7,8,16,25.3,30.6,32.9c-3.3,4.2-5.2,9.7-5.2,15.3
		c0,13,9.8,23.6,21.9,23.6c12.1,0,21.9-10.6,21.9-23.6c0-1.8-0.2-3.5-0.5-5.3c4.5-1.4,13.3-4.9,21.2-11.8L176.1,98.5z"/>
	<path d="M75.7,240.6c0,0,9.4,28.1,35.9,20.1c0,0-9.5-0.4-15.3-5.7c0,0,17.7,1.1,28.5-14.4C124.9,240.6,99.3,258.1,75.7,240.6z"/>
	<path class="st0" d="M101.8,82V21.2c0,0,10.9,17.4,23.2,23.9c0,0-10,19,3.5,32.8c13.5,13.8,30.9,4.1,30.9,4.1s13-5.6,12.1-26.1
		c0,0,9.6-3.1,13.3-7L173.7,94c0,0-33-9.5-71.9-8.9V82z"/>
	<path class="st0" d="M63.4,82.9c0,0,12.1-4.1,14.1-18.1c0,0,8.6,1.7,10.4-5.1l5.5,5l3.2,19c0,0-18.3-1.5-44,4.2
		C52.6,88,60.5,85.5,63.4,82.9z"/>
	<path class="st0" d="M64.1,94.8c-1.1,0.1-2.3,0.2-3.4,0.3V112c1.1-0.1,2.2-0.2,3.4-0.3V94.8z"/>
	<path class="st0" d="M158.5,98.6c-14-3.5-33.9-5.3-59.1-5.3c-11.6,0-22,0.4-31.2,1.1v16.8c9.3-0.7,19.8-1.1,31.2-1.1
		c34.1,0,54.3,3.2,66.1,6.8v-16.3C163.6,100.1,161.3,99.3,158.5,98.6z"/>
	<path class="st2" d="M159.5,100.1v14.6c1.1,0.3,2.2,0.6,3.3,1v-14.4C161.7,100.8,160.6,100.4,159.5,100.1z"/>
	<path class="st2" d="M144.6,96.6v15c3.8,0.6,7.5,1.3,10.8,2.1V98.9C152.1,98,148.5,97.3,144.6,96.6z"/>
	<path class="st0" d="M169.6,102.4v16.1c1.4,0.5,2.6,1,3.7,1.6v-15.5C172.6,104,171.5,103.3,169.6,102.4z"/>
	<path class="st2" d="M173.3,57.1c0,0,5.3-0.9,9.3-4.2l-9.8,38.4l4.6-33C177.3,58.4,174.6,58.5,173.3,57.1z"/>
	<path class="st2" d="M104.2,75.4v-47c0,0,7.2,13,17,16.8c0,0-7,0.2-12.6-3L104.2,75.4z"/>
	<path class="st6" d="M43.9,152.3c0,0,2.1,18.8,21.4,20.8c0,0,9.3,0.7,14.1-2.5c0,0,0.8,6.8-2,8.7c0,0-9.1,1.3-10.2,4.7
		c0,0-9.2-1.2-11.3,4.7c0,0-5-5-5-9.5c0,0-10.6-9.6-11.8-20C38.9,159.2,40.9,153.3,43.9,152.3z"/>
	<path class="st6" d="M69.2,130.2c0,0,10.1,18.1,24.6,12.9c0,0,5.8,4.3,3.7,12l1.9,2.1v36.5c0,0-2,1.9-4.5,1.7c0,0,0.5,6.2-2.8,7.5
		c0,0,7.1,9.2,15,0.8c0,0,1.3-2.5,0.8-4.5c0,0,3.9,3.9,9.3,0.6c5.4-3.3,0.4-9.7,0.4-9.7s-2.1-1.8-5.4-1.3c0,0-4.6,1.3-6.4,6.6
		c0,0-2.3-3.8,0.4-9.4c0,0-5.5-17.1-2.3-30.2c0,0-3.4-6.9-0.7-11c0,0,11.9,4.7,19.2-4c7.3-8.8,16.8-15.1,25.1-14.9v-2.4
		c0,0-35.3-6.3-79.4-1.8v7.2L69.2,130.2z"/>
	<path class="st6" d="M154.2,149.7c0,0-8.1,35.6-40.5,16.5c0,0,0.3,9.9,2.4,12.4c0,0,8.9,1.3,11.5,6.8c0,0,9.8-0.4,16.3,11.3
		c0,0-9.9-2-15.4,0c0,0-0.6,2.8-1.5,3.4c0,0,19.8-1.3,25.7,8.7c0,0,4.5-8,2.4-14.2c0,0-1.1,5.1-3,6c0,0-8.2-9.1-2.9-18.7
		c5.3-9.6,16-15.4,12.4-27.3L154.2,149.7z"/>
	<path class="st7" d="M179.7,175.3c0,0,11.5,24.2,9.5,48.1c0,0-9.6-20.4-21.1-29.3c0,0,11.5,2.6,15.7,9.8
		C183.7,203.9,183.5,187.5,179.7,175.3z"/>
	<path class="st7" d="M166.3,203.9c0,0,8.9,24.8,8,51.5c0,0-3-14.3-6.3-19.6c0,0,3.2,16.3,2.3,28.3c0,0-3,7.9-5.6,9.8
		c0,0-3-21.1-9.8-30c0,0,4.9-9.7,2.3-18.1C157.2,225.8,166.3,215.2,166.3,203.9z"/>
	<path class="st7" d="M118.6,254.7c0,0,12.4-4.7,15.2-14.1c0,0,5.6,0.3,7-1.7c0,0,3,8.5,1.6,21.2c0,0,5.4-1.9,7-5.6
		c0,0,8.3,35.2-15.4,50.3c0,0,8.8-32.3-3.7-45.8C130.4,259,123.3,260.8,118.6,254.7z"/>
	<path class="st7" d="M121,208.8c0,0,7.4-0.8,13.1,0.9l0.7,7l1.8-6.3c0,0,5.7,2.1,7.6,7.7l-0.6,6.1c0,0-2.7-3.2-8.9-3.8
		c-6.1-0.5-10.2,1.8-13.8,0.3V208.8z"/>
	<path class="st7" d="M88.1,240.6c0,0,19,2.2,25.6-6.2c0,0,3.2,4.7,8.1,3.2C121.8,237.6,105.6,250.4,88.1,240.6z"/>
	<path class="st7" d="M128,263.8c-0.9,8.5-5.8,19.4-5.8,19.4c1.5-8.5,0.6-18.4,0.6-18.4c-1.3,0.5-4.6,0.8-4.6,0.8
		c-1.4,4.9-8.2,7.6-8.2,7.6l-4.3,20l-0.4-20.6c5-1.5,6.7-6.2,6.7-6.2c-4,2.3-11.6,2.2-11.6,2.2s-6.4,0.1-10.2-1.8c0,0,2.8,5,7.7,6.4
		l-1.2,28.9c0,0-10.3-7-12.6-18.8c0,0-1.1,26.9,16.3,35.9c5.2-0.4,10.8-5.3,10.8-5.3c5.1-6.1,7.5-30.8,7.5-30.8
		c2.1,7.4,0,19.4,0,19.4C128.2,288.4,128,263.8,128,263.8z"/>
</g>
</svg>
