<?xml version="1.0" encoding="utf-8"?>
<!-- Generator: Adobe Illustrator 22.1.0, SVG Export Plug-In . SVG Version: 6.00 Build 0)  -->
<svg version="1.1" id="Lager_1" xmlns="http://www.w3.org/2000/svg" xmlns:xlink="http://www.w3.org/1999/xlink" x="0px" y="0px"
	 viewBox="0 0 580.9 479" style="enable-background:new 0 0 580.9 479;" xml:space="preserve">
<style type="text/css">
	.st0{fill:#FFFFFF;}
	.st1{font-family:'LapsusPro-Bold';}
	.st2{font-size:86.8879px;}
	.st3{letter-spacing:1;}
	.st4{fill:#EDD498;}
	.st5{fill:#ECA702;}
	.st6{fill:#ECC76C;}
	.st7{opacity:0.1;}
	.st8{fill:#020203;}
	.st9{fill:#D59801;}
	.st10{fill:#F1E9D1;}
	.st11{fill:#E0DAC4;}
	.st12{fill:#FFFCF3;}
	.st13{fill:#DFE6E4;}
	.st14{fill:#602D2D;}
	.st15{fill:#F3F9F9;}
	.st16{fill:#EDC292;}
	.st17{fill:#886D5C;}
	.st18{fill:#AD6F5F;}
	.st19{fill:#AE8B7F;}
	.st20{fill:#9CA18C;}
	.st21{fill:#B1B69E;}
	.st22{fill:#7AA0BB;}
	.st23{fill:#DAB6A5;}
	.st24{fill:#9A7F67;}
	.st25{fill:#7292A8;}
	.st26{fill:#EDD0B2;}
	.st27{fill:#2A3A53;}
	.st28{fill:#514F52;}
	.st29{fill:#2E405C;}
	.st30{fill:#3F516C;}
</style>
<text transform="matrix(1 0 0 1.16 4.8651 451.9951)" class="st0 st1 st2 st3">PREPARTY.APP</text>
<g>
	<g>
		<g>
			<path class="st4" d="M234.6,141.8l-25.3,73c-2,5.8-8.3,8.9-14.1,6.9l-38.5-13.3c-5.8-2-8.9-8.3-6.9-14.1l25.3-73l-3.2-1.1
				l-26.1,75.4c-2.2,6.4,1.2,13.5,7.6,15.7L196,226c6.4,2.2,13.5-1.2,15.7-7.6l26.1-75.4L234.6,141.8z"/>
		</g>
		<g>
			<path class="st5" d="M156.7,208.4l38.5,13.3c5.8,2,12.1-1.1,14.1-6.9l23.1-66.8L173,127.5l-23.1,66.8
				C147.8,200,150.9,206.4,156.7,208.4z"/>
		</g>
		<g>
			<g>
				<path class="st4" d="M241.8,159.3l-11.8-4.1l-2.8,8l10.9,3.8c0,0,7.5,2.6,4.5,11.1c-2.9,8.5-7.5,21.6-7.5,21.6s-2,9-11.7,5.6
					c-4.8-1.7-8.7-3-9.7-3.4l-2.8,8l11.8,4.1c8,2.8,16.7-1.5,19.5-9.5l8.9-25.7C254.1,170.8,249.8,162.1,241.8,159.3z"/>
			</g>
		</g>
		<g>
			<path class="st6" d="M185.1,144.5l-11.2-3.9L157.2,189l0,0c0,0,0,0.1,0,0.1c-1.1,3.1,0.6,6.4,3.6,7.5c3.1,1.1,6.4-0.6,7.5-3.6
				c0,0,0-0.1,0-0.1l0,0L185.1,144.5z"/>
		</g>
		<g>
			<path class="st6" d="M212.3,153.9l11.2,3.9l-16.7,48.4l0,0c0,0,0,0.1,0,0.1c-1.1,3.1-4.4,4.7-7.5,3.6c-3.1-1.1-4.7-4.4-3.6-7.5
				c0,0,0-0.1,0-0.1l0,0L212.3,153.9z"/>
		</g>
		<g>
			<path class="st6" d="M204.2,151.1l-11.2-3.9l-16.7,48.4l0,0c0,0,0,0.1,0,0.1c-1.1,3.1,0.6,6.4,3.6,7.5c3.1,1.1,6.4-0.6,7.5-3.6
				c0,0,0-0.1,0-0.1l0,0L204.2,151.1z"/>
		</g>
		<g>
			<path class="st4" d="M232.5,147.9l-23.2,66.9c-2,5.8-8.3,8.9-14.1,6.9l-38.5-13.3c-5.8-2-8.9-8.3-6.9-14.1l23.2-66.9l-3.2-1.1
				l-24,69.4c-2.2,6.4,1.2,13.5,7.6,15.7L196,226c6.4,2.2,13.5-1.2,15.7-7.6l24-69.4L232.5,147.9z"/>
		</g>
		<g class="st7">
			<g>
				<path class="st8" d="M152.3,210.8c0.4,0.2,0.7,0.3,1.1,0.5L196,226c6.4,2.2,13.5-1.2,15.7-7.6l13.2-38.1
					C224.9,180.3,201.3,221.5,152.3,210.8z"/>
			</g>
		</g>
		<g>
			<polygon class="st9" points="232.5,148.1 173,127.3 230,155.2 			"/>
		</g>
		<g>
			<g>
				<path class="st10" d="M250.3,140.9c0.9-4.5-1.2-9-4.9-11.3c2.4-6.2,0.6-13.5-4.9-17.9c-5.3-4.3-12.6-4.5-18.1-1.2
					c-1-1.7-2.6-3.1-4.7-3.8c-2.2-0.8-4.5-0.6-6.4,0.3c-0.4-6.5-4.6-12.5-11.2-14.8c-8.7-3-18.3,1.6-21.3,10.3
					c-0.5,1.3-0.7,2.6-0.9,3.9c-0.9-0.5-2-0.9-3.1-1.1c-5.9-1.2-11.5,2.6-12.7,8.5c-1.2,5.9,1.8,10.7,7.6,12.5l66.7,23.3
					c0.3,0.1,0.6,0.2,1,0.2C243.3,150.9,249.1,146.7,250.3,140.9z"/>
			</g>
			<g>
				<path class="st11" d="M245.4,129.6L245.4,129.6c0,0-13.9,16.4-75.6-3.5c16.2,5.7,66.7,23.4,66.7,23.4c0.3,0.1,0.6,0.2,1,0.2
					c5.9,1.2,11.7-3,12.8-8.8C251.2,136.3,249.1,131.9,245.4,129.6z"/>
			</g>
			<g>
				<path class="st12" d="M204.4,97.2c0.1,0,0.1,0.1,0.2,0.1c-1.4-1.3-3.1-2.3-4.9-2.9c-7.5-2.6-15.7,1.4-18.3,8.9
					c-0.6,1.8-0.9,3.7-0.8,5.5C184,99,194.6,93.8,204.4,97.2z"/>
			</g>
		</g>
	</g>
	<g>
		<g>
			<path class="st4" d="M45.7,67.7l42.6,80c3.4,6.4,11.3,8.8,17.6,5.4l42.1-22.5c6.4-3.4,8.8-11.3,5.4-17.6l-42.6-80l3.5-1.9
				l44,82.6c3.8,7,1.1,15.8-6,19.6l-46.7,24.9c-7,3.8-15.8,1.1-19.6-6l-44-82.6L45.7,67.7z"/>
		</g>
		<g>
			<path class="st5" d="M148.1,130.6l-42.1,22.5c-6.4,3.4-14.3,1-17.6-5.4l-39-73.1l65.2-34.7l39,73.1
				C156.9,119.3,154.5,127.2,148.1,130.6z"/>
		</g>
		<g>
			<g>
				<path class="st4" d="M40.5,89.3l13-6.9l4.7,8.7l-12,6.4c0,0-8.2,4.4-3.2,13.7c5,9.3,12.6,23.6,12.6,23.6s3.9,10,14.6,4.4
					c5.3-2.8,9.5-5.1,10.6-5.7l4.6,8.7l-13,6.9c-8.8,4.7-19.7,1.4-24.3-7.4l-15-28.1C28.5,104.9,31.8,94,40.5,89.3z"/>
			</g>
		</g>
		<g>
			<path class="st6" d="M103.6,61.8l12.2-6.5l28.2,53l0,0c0,0,0,0.1,0.1,0.1c1.8,3.4,0.5,7.6-2.9,9.4c-3.4,1.8-7.6,0.5-9.4-2.9
				c0,0,0-0.1-0.1-0.1l0,0L103.6,61.8z"/>
		</g>
		<g>
			<path class="st6" d="M73.8,77.6l-12.2,6.5l28.2,53l0,0c0,0,0,0.1,0.1,0.1c1.8,3.4,6,4.7,9.4,2.9c3.4-1.8,4.7-6,2.9-9.4
				c0,0,0-0.1-0.1-0.1l0,0L73.8,77.6z"/>
		</g>
		<g>
			<path class="st6" d="M82.6,73l12.2-6.5l28.2,53l0,0c0,0,0,0.1,0.1,0.1c1.8,3.4,0.5,7.6-2.9,9.4c-3.4,1.8-7.6,0.5-9.4-2.9
				c0,0,0-0.1-0.1-0.1l0,0L82.6,73z"/>
		</g>
		<g>
			<path class="st4" d="M49.2,74.3l39.1,73.3c3.4,6.4,11.3,8.8,17.6,5.4l42.1-22.5c6.4-3.4,8.8-11.3,5.4-17.6l-39.1-73.3l3.5-1.9
				l40.5,76c3.8,7,1.1,15.8-6,19.6l-46.7,24.9c-7,3.8-15.8,1.1-19.6-6l-40.5-76L49.2,74.3z"/>
		</g>
		<g class="st7">
			<g>
				<path class="st8" d="M153.7,132.5c-0.4,0.3-0.8,0.5-1.2,0.7l-46.7,24.9c-7,3.8-15.8,1.1-19.6-6L64,110.5
					C64,110.5,98.8,153.9,153.7,132.5z"/>
			</g>
		</g>
		<g>
			<polygon class="st9" points="49.3,74.5 114.4,39.6 53.5,82.4 			"/>
		</g>
		<g>
			<g>
				<path class="st10" d="M27.4,69.4c-1.9-5.1-0.3-10.6,3.6-14c-3.9-6.8-3.2-15.6,2.3-21.7c5.4-5.9,13.7-7.6,20.7-4.7
					c0.9-2.2,2.5-4.1,4.7-5.3c2.4-1.3,5.1-1.5,7.5-0.9c-0.7-7.7,3.1-15.4,10.3-19.2c9.6-5.1,21.5-1.5,26.6,8.1
					c0.8,1.4,1.3,2.9,1.7,4.4c1-0.8,2.1-1.4,3.4-1.9c6.6-2.4,13.9,0.9,16.3,7.5c2.4,6.6-0.2,12.7-6.5,15.9l-73,39.2
					c-0.3,0.2-0.7,0.3-1.1,0.5C37.3,79.8,29.8,76,27.4,69.4z"/>
			</g>
			<g>
				<path class="st11" d="M31,55.5L31,55.5c0,0,19.1,16.5,86.9-17.8c-17.7,9.5-73,39.2-73,39.2c-0.3,0.2-0.7,0.3-1.1,0.5
					c-6.6,2.4-14.1-1.3-16.5-7.9C25.5,64.3,27.1,58.8,31,55.5z"/>
			</g>
			<g>
				<path class="st12" d="M72.6,10.5c-0.1,0-0.2,0.1-0.2,0.1c1.4-1.7,3.1-3.2,5.2-4.3c8.2-4.4,18.5-1.3,22.9,7
					c1.1,2,1.7,4.1,1.9,6.2C96.6,8.8,83.3,4.8,72.6,10.5z"/>
			</g>
		</g>
	</g>
	<g>
		<g>
			<path class="st4" d="M549.6,91.1l-38.7,72.6c-3.1,5.8-10.2,8-16,4.9l-38.2-20.4c-5.8-3.1-8-10.2-4.9-16l38.7-72.6l-3.2-1.7
				l-39.9,75c-3.4,6.4-1,14.3,5.4,17.7l42.4,22.6c6.4,3.4,14.3,1,17.7-5.4l39.9-75L549.6,91.1z"/>
		</g>
		<g>
			<path class="st5" d="M456.7,148.2l38.2,20.4c5.8,3.1,12.9,0.9,16-4.9l35.3-66.3l-59.1-31.5l-35.3,66.3
				C448.7,138,450.9,145.1,456.7,148.2z"/>
		</g>
		<g>
			<g>
				<path class="st4" d="M554.2,110.7l-11.8-6.3l-4.2,7.9l10.9,5.8c0,0,7.4,4,2.9,12.4c-4.5,8.5-11.4,21.5-11.4,21.5
					s-3.6,9.1-13.2,4c-4.8-2.6-8.6-4.6-9.6-5.1l-4.2,7.9l11.8,6.3c8,4.2,17.8,1.2,22.1-6.7l13.6-25.5
					C565.2,124.8,562.2,115,554.2,110.7z"/>
			</g>
		</g>
		<g>
			<path class="st6" d="M497,85.8l-11.1-5.9l-25.6,48l0,0c0,0,0,0.1-0.1,0.1c-1.6,3.1-0.5,6.9,2.6,8.5c3.1,1.6,6.9,0.5,8.5-2.6
				c0,0,0-0.1,0-0.1l0,0L497,85.8z"/>
		</g>
		<g>
			<path class="st6" d="M524.1,100.1l11.1,5.9l-25.6,48l0,0c0,0,0,0.1,0,0.1c-1.6,3.1-5.4,4.2-8.5,2.6c-3.1-1.6-4.2-5.4-2.6-8.5
				c0,0,0-0.1,0.1-0.1l0,0L524.1,100.1z"/>
		</g>
		<g>
			<path class="st6" d="M516.1,95.9L505,90l-25.6,48l0,0c0,0,0,0.1-0.1,0.1c-1.6,3.1-0.5,6.9,2.6,8.5c3.1,1.6,6.9,0.5,8.5-2.6
				c0,0,0-0.1,0-0.1l0,0L516.1,95.9z"/>
		</g>
		<g>
			<path class="st4" d="M546.3,97.2l-35.4,66.5c-3.1,5.8-10.2,8-16,4.9l-38.2-20.4c-5.8-3.1-8-10.2-4.9-16l35.4-66.5L484,64
				l-36.7,68.9c-3.4,6.4-1,14.3,5.4,17.7l42.4,22.6c6.4,3.4,14.3,1,17.7-5.4l36.7-68.9L546.3,97.2z"/>
		</g>
		<g class="st7">
			<g>
				<path class="st8" d="M451.6,150c0.4,0.2,0.7,0.5,1.1,0.7l42.4,22.6c6.4,3.4,14.3,1,17.7-5.4L533,130
					C533,130,501.3,169.4,451.6,150z"/>
			</g>
		</g>
		<g>
			<polygon class="st9" points="546.2,97.3 487.2,65.7 542.4,104.5 			"/>
		</g>
		<g>
			<g>
				<path class="st10" d="M566.2,92.7c1.7-4.6,0.2-9.6-3.3-12.7c3.5-6.2,2.9-14.1-2.1-19.7c-4.9-5.4-12.4-6.9-18.8-4.3
					c-0.8-2-2.3-3.7-4.3-4.8c-2.2-1.2-4.6-1.4-6.8-0.8c0.7-6.9-2.8-13.9-9.4-17.4c-8.7-4.6-19.5-1.3-24.1,7.3
					c-0.7,1.3-1.2,2.6-1.5,4c-0.9-0.7-1.9-1.3-3.1-1.7c-6-2.2-12.6,0.9-14.8,6.8c-2.2,6,0.1,11.5,5.9,14.4l66.2,35.5
					c0.3,0.2,0.6,0.3,1,0.4C557.2,102.1,564,98.7,566.2,92.7z"/>
			</g>
			<g>
				<path class="st11" d="M562.9,80L562.9,80c0,0-17.4,15-78.9-16.2c16,8.6,66.2,35.6,66.2,35.6c0.3,0.2,0.6,0.3,1,0.4
					c6,2.2,12.8-1.2,15-7.2C567.9,88.1,566.4,83.1,562.9,80z"/>
			</g>
			<g>
				<path class="st12" d="M525.2,39.2c0.1,0,0.1,0.1,0.2,0.1c-1.3-1.6-2.8-2.9-4.7-3.9c-7.5-4-16.8-1.2-20.8,6.3
					c-1,1.8-1.5,3.7-1.7,5.6C503.4,37.7,515.5,34,525.2,39.2z"/>
			</g>
		</g>
	</g>
	<g>
		<g>
			<path class="st13" d="M409.3,144.1c16.5-4.6,27.1-21.2,24-38.4c-0.5-2.6-1.2-5.1-2.2-7.4l-18.5-44.7l-3.5,0.6l-0.6,0.1l-18.2,3.3
				l-17.8,3.2l-1.1,0.2l-3,0.5l-1.8,48.3c-0.1,2.5,0,5.1,0.5,7.7c3.1,17.1,18.5,28.9,35.4,27.7l5.6,31.3c-4.3,1.2-12,3.8-19.6,8.1
				l0.5,2.7l24-4.3l24-4.3l-0.5-2.7c-9-1.4-17.3-1.1-21.7-0.7L409.3,144.1z"/>
		</g>
		<g>
			<path class="st14" d="M425.7,95.3l-55,9.9l-0.1,3.6c-0.1,2.2,0,4.5,0.4,6.8c2.9,16.1,18.2,26.8,34.3,23.9
				c16-2.9,26.7-18.3,23.8-34.4c-0.4-2.3-1.1-4.4-1.9-6.5L425.7,95.3z"/>
		</g>
		<g class="st7">
			<g>
				<path class="st8" d="M433.3,105.7c-0.5-2.6-1.2-5.1-2.2-7.4l-10.3-24.8c0,0,13.2,52.9-43.2,63.1l0,0c6.6,6,15.6,9.4,25,8.7
					l5.6,31.3c-4.3,1.2-12,3.8-19.6,8.1l0.5,2.7l24-4.3l24-4.3l-0.5-2.7c-9-1.4-17.3-1.1-21.7-0.7l-5.6-31.2
					C425.8,139.5,436.4,122.9,433.3,105.7z"/>
			</g>
		</g>
		<g>
			<path class="st15" d="M371.5,93.1l1.1-22.3c0.2-3.6,2.8-6.6,6.4-7.3l6.3-1.1C385.2,62.4,374,67,371.5,93.1z"/>
		</g>
		<g class="st7">
			<g>
				<path class="st8" d="M436.5,176.1c-8.7-1.4-16.8-1.1-21.3-0.8c0,0,11.5-0.2,17.4,4.2l4.4-0.8L436.5,176.1z"/>
			</g>
		</g>
	</g>
	<g>
		<g>
			<polygon class="st16" points="261.4,187 261,176.9 239.6,169.2 237.7,176.3 249.3,184.8 234.6,213.4 224.2,213.9 223.5,219.7 
				216.9,244.4 238.7,254.5 243.6,213.3 261.8,195.6 			"/>
		</g>
	</g>
	<g>
		<polygon class="st16" points="236,176.1 245.2,186.1 232.3,208.6 222.2,208 218.3,199.4 230.9,175.8 		"/>
	</g>
	<g>
		<polygon class="st17" points="30.8,221.1 39.5,156.2 18.8,132.6 26.4,115.5 49.3,111.5 50.7,119.5 39.9,126.4 49.3,143.7 
			54.8,148.8 70.3,150.1 63.8,161.3 68.2,221.1 		"/>
	</g>
	<g>
		<polygon class="st17" points="57.6,116.3 45.7,125.3 54.7,142.4 68.9,144.6 70.3,135.1 		"/>
	</g>
	<g>
		<polygon class="st18" points="170.8,359.4 209.3,236.4 245.2,254.5 239.4,359.4 		"/>
	</g>
	<g>
		<path class="st19" d="M421.6,164.9l1.1-18.9l-4-5.7l-7.9,3.2l-0.1,0l-38.8-14.2l-5.8,8.3l22.1,21.8l14.2,9.4c0,0-8,90.4-6.5,90
			s39.6-1.1,39.6-1.1S424.1,188.9,421.6,164.9z"/>
	</g>
	<g>
		<g>
			<polygon class="st20" points="87,359.4 74.6,214.1 24.5,204.1 3.9,359.4 			"/>
		</g>
		<g>
			<polygon class="st21" points="70.3,201.5 30.1,190.6 28.2,204.8 70.3,213.5 			"/>
		</g>
	</g>
	<g>
		<polygon class="st22" points="375.9,359.4 394.7,217.1 435.4,222.2 449.2,359.4 		"/>
	</g>
	<g>
		<path class="st23" d="M547.8,174.7l4.3-13.3l3.1-5.5l-4.7-18.6l-4.2,2.1l0-0.1l-6.7-0.9l-3.8,6.9l-2.7-3.4l-6.5,0.8l-1.2,3.5l-2-5
			l-4.9,2.7l2.9,6.9l-0.3,0.1l-2,17.9l1.1,5.2l0.8,8.4l-19.6,82.4l54.1-2.5l-9.1-83.3L547.8,174.7z"/>
	</g>
	<g>
		<polygon class="st24" points="497.1,262.1 559.1,262.1 562.7,310 576.2,359.4 482.5,359.4 		"/>
	</g>
	<g>
		<path class="st25" d="M389.4,257.5c0,0-9.9-40-11.7-42.5c-1.8-2.5,12-6.5,12-6.5s6.9,9.1,14.2,6.5s11.6,1.1,14.5,2.2
			c2.9,1.1,12-4,13.4-5.4s14.9,6.2,14.2,8.3c-0.7,2.2-7.9,28.6-7.9,28.6L389.4,257.5z"/>
	</g>
	<g>
		<g>
			<g>
				<path class="st13" d="M313.2,93.4c15.9,6.3,34.4-0.5,42.4-16.1c1.2-2.3,2.1-4.8,2.7-7.2l12.3-46.8l-3.1-1.6l-0.6-0.3L350.3,13
					l-16.1-8.2l-1-0.5l-2.7-1.4l-30.7,37.4c-1.6,1.9-3.1,4.1-4.3,6.4c-7.9,15.5-2.7,34.2,11.4,43.5l-14.5,28.4
					c-4.2-1.6-11.8-4.2-20.5-5.4l-1.2,2.4l21.7,11.1l21.7,11.1l1.2-2.4c-6.3-6.5-13.1-11.3-16.8-13.7L313.2,93.4z"/>
			</g>
			<g>
				<path class="st14" d="M355.7,64.4L305.9,39l-2.3,2.7c-1.4,1.7-2.7,3.6-3.7,5.6c-7.4,14.6-1.7,32.4,12.8,39.8
					c14.5,7.4,32.3,1.6,39.7-13c1.1-2.1,1.8-4.2,2.4-6.3L355.7,64.4z"/>
			</g>
			<g class="st7">
				<g>
					<path class="st8" d="M355.5,77.2c1.2-2.3,2.1-4.8,2.7-7.2l6.8-26c0,0-21.5,50.1-72.5,24.1l0,0c1.6,8.8,6.7,16.9,14.6,22.1
						l-14.5,28.4c-4.2-1.6-11.8-4.2-20.5-5.4l-1.2,2.4l21.7,11.1l21.7,11.1l1.2-2.4c-6.3-6.5-13.1-11.3-16.8-13.7l14.4-28.3
						C329.1,99.7,347.5,92.9,355.5,77.2z"/>
				</g>
			</g>
			<g>
				<path class="st15" d="M313.9,29.9l14.4-17.1c2.3-2.8,6.2-3.6,9.5-1.9l5.7,2.9C343.4,13.8,331.7,10.6,313.9,29.9z"/>
			</g>
			<g class="st7">
				<g>
					<path class="st8" d="M315.6,135.3c-6.1-6.3-12.7-11-16.5-13.5c0,0,9.2,6.8,11.3,13.9l4,2L315.6,135.3z"/>
				</g>
			</g>
		</g>
		<g>
			<polygon class="st26" points="304.7,121.7 294.9,99.9 294.9,76 302.9,81.1 307.6,96.9 355.5,74.9 360.3,80.3 328.7,121.7 
				335.2,212.8 292.8,212.8 			"/>
		</g>
		<g>
			<polygon class="st27" points="271,359.4 279.7,189.2 296.8,171.8 334.1,183 347.6,199.7 359.5,359.4 			"/>
		</g>
		<g>
			<path class="st28" d="M302.9,125.3c0,0,11.6,6.9,27.6,1.1l0.7,6c0,0-15.6,6.3-29.4-1.4L302.9,125.3z"/>
		</g>
		<g>
			<polygon class="st29" points="296.8,171.8 298.6,155.4 334.1,161.3 334.1,183 			"/>
		</g>
		<g>
			<polygon class="st30" points="300.3,155.7 298.9,172.4 301.9,173.3 302.8,156.1 			"/>
		</g>
		<g>
			<polygon class="st30" points="305.5,156.6 304.2,174 307,174.8 308,157 			"/>
		</g>
		<g>
			<polygon class="st30" points="310.6,157.4 310.6,176 313.5,176.8 313.2,157.8 			"/>
		</g>
		<g>
			<polygon class="st30" points="316,158.4 315.6,177.5 318.2,178.4 319.3,158.9 			"/>
		</g>
		<g>
			<polygon class="st30" points="322.2,159.4 322.2,179.5 325.4,180.5 325.4,159.9 			"/>
		</g>
		<g>
			<polygon class="st30" points="328.2,160.3 328.2,181.3 331.3,182.3 331.9,160.9 			"/>
		</g>
	</g>
</g>
</svg>
