<?xml version="1.0" encoding="utf-8"?>
<!-- Generator: Adobe Illustrator 22.1.0, SVG Export Plug-In . SVG Version: 6.00 Build 0)  -->
<svg version="1.1" id="Lager_1" xmlns="http://www.w3.org/2000/svg" xmlns:xlink="http://www.w3.org/1999/xlink" x="0px" y="0px"
	 viewBox="0 0 414.2 259.1" style="enable-background:new 0 0 414.2 259.1;" xml:space="preserve">
<style type="text/css">
	.st0{fill:#EDD498;}
	.st1{fill:#ECA702;}
	.st2{fill:#ECC76C;}
	.st3{opacity:0.1;}
	.st4{fill:#020203;}
	.st5{fill:#D59801;}
	.st6{fill:#F1E9D1;}
	.st7{fill:#E0DAC4;}
	.st8{fill:#FFFCF3;}
	.st9{fill:#DFE6E4;}
	.st10{fill:#602D2D;}
	.st11{fill:#F3F9F9;}
	.st12{fill:#EDC292;}
	.st13{fill:#886D5C;}
	.st14{fill:#AD6F5F;}
	.st15{fill:#AE8B7F;}
	.st16{fill:#9CA18C;}
	.st17{fill:#B1B69E;}
	.st18{fill:#7AA0BB;}
	.st19{fill:#DAB6A5;}
	.st20{fill:#9A7F67;}
	.st21{fill:#7292A8;}
	.st22{fill:#EDD0B2;}
	.st23{fill:#2A3A53;}
	.st24{fill:#514F52;}
	.st25{fill:#2E405C;}
	.st26{fill:#3F516C;}
</style>
<g>
	<g>
		<g>
			<path class="st0" d="M166.4,103l-18.3,52.9c-1.5,4.2-6,6.4-10.2,5l-27.9-9.6c-4.2-1.5-6.4-6-5-10.2l18.3-52.9l-2.3-0.8
				l-18.9,54.6c-1.6,4.7,0.9,9.7,5.5,11.4l30.9,10.7c4.7,1.6,9.7-0.9,11.4-5.5l18.9-54.6L166.4,103z"/>
		</g>
		<g>
			<path class="st1" d="M110,151.2l27.9,9.6c4.2,1.5,8.8-0.8,10.2-5l16.7-48.3l-43.1-14.9L105.1,141
				C103.6,145.2,105.8,149.8,110,151.2z"/>
		</g>
		<g>
			<g>
				<path class="st0" d="M171.6,115.7l-8.6-3l-2,5.8l7.9,2.7c0,0,5.4,1.9,3.3,8c-2.1,6.2-5.4,15.6-5.4,15.6s-1.4,6.5-8.5,4.1
					c-3.5-1.2-6.3-2.2-7-2.4l-2,5.8l8.6,3c5.8,2,12.1-1.1,14.1-6.9l6.4-18.6C180.5,124.1,177.4,117.7,171.6,115.7z"/>
			</g>
		</g>
		<g>
			<path class="st2" d="M130.6,105l-8.1-2.8l-12.1,35l0,0c0,0,0,0,0,0.1c-0.8,2.2,0.4,4.7,2.6,5.4c2.2,0.8,4.7-0.4,5.4-2.6
				c0,0,0,0,0-0.1l0,0L130.6,105z"/>
		</g>
		<g>
			<path class="st2" d="M150.2,111.8l8.1,2.8l-12.1,35l0,0c0,0,0,0,0,0.1c-0.8,2.2-3.2,3.4-5.4,2.6c-2.2-0.8-3.4-3.2-2.6-5.4
				c0,0,0,0,0-0.1l0,0L150.2,111.8z"/>
		</g>
		<g>
			<path class="st2" d="M144.4,109.8l-8.1-2.8l-12.1,35l0,0c0,0,0,0,0,0.1c-0.8,2.2,0.4,4.7,2.6,5.4c2.2,0.8,4.7-0.4,5.4-2.6
				c0,0,0,0,0-0.1l0,0L144.4,109.8z"/>
		</g>
		<g>
			<path class="st0" d="M164.9,107.5l-16.8,48.5c-1.5,4.2-6,6.4-10.2,5l-27.9-9.6c-4.2-1.5-6.4-6-5-10.2l16.8-48.5l-2.3-0.8
				l-17.4,50.2c-1.6,4.7,0.9,9.7,5.5,11.4l30.9,10.7c4.7,1.6,9.7-0.9,11.4-5.5l17.4-50.2L164.9,107.5z"/>
		</g>
		<g class="st3">
			<g>
				<path class="st4" d="M106.8,153c0.3,0.1,0.5,0.2,0.8,0.3l30.9,10.7c4.7,1.6,9.7-0.9,11.4-5.5l9.5-27.5
					C159.4,130.9,142.3,160.7,106.8,153z"/>
			</g>
		</g>
		<g>
			<polygon class="st5" points="164.9,107.6 121.8,92.5 163.1,112.8 			"/>
		</g>
		<g>
			<g>
				<path class="st6" d="M177.8,102.4c0.7-3.3-0.9-6.5-3.6-8.2c1.7-4.5,0.5-9.8-3.5-13c-3.8-3.1-9.1-3.3-13.1-0.9
					c-0.7-1.3-1.9-2.3-3.4-2.8c-1.6-0.5-3.2-0.4-4.6,0.2c-0.3-4.7-3.4-9.1-8.1-10.7c-6.3-2.2-13.2,1.2-15.4,7.5
					c-0.3,0.9-0.5,1.9-0.6,2.9c-0.7-0.4-1.4-0.7-2.2-0.8c-4.2-0.8-8.4,1.9-9.2,6.1c-0.8,4.2,1.3,7.7,5.5,9.1l48.3,16.9
					c0.2,0.1,0.5,0.1,0.7,0.2C172.7,109.6,176.9,106.6,177.8,102.4z"/>
			</g>
			<g>
				<path class="st7" d="M174.2,94.2L174.2,94.2c0,0-10.1,11.9-54.7-2.5c11.7,4.1,48.3,16.9,48.3,16.9c0.2,0.1,0.5,0.1,0.7,0.2
					c4.2,0.8,8.4-2.2,9.3-6.4C178.4,99.1,176.9,95.9,174.2,94.2z"/>
			</g>
			<g>
				<path class="st8" d="M144.6,70.8c0.1,0,0.1,0,0.2,0.1c-1-0.9-2.2-1.6-3.6-2.1c-5.4-1.9-11.4,1-13.3,6.4c-0.5,1.3-0.6,2.7-0.6,4
					C129.8,72,137.5,68.3,144.6,70.8z"/>
			</g>
		</g>
	</g>
	<g>
		<g>
			<path class="st0" d="M29.7,49.4l30.9,57.9c2.5,4.6,8.2,6.3,12.8,3.9l30.5-16.3c4.6-2.5,6.3-8.2,3.9-12.8L76.8,24.3l2.6-1.4
				l31.9,59.8c2.7,5.1,0.8,11.4-4.3,14.2l-33.8,18c-5.1,2.7-11.4,0.8-14.2-4.3L27.1,50.7L29.7,49.4z"/>
		</g>
		<g>
			<path class="st1" d="M103.8,94.9l-30.5,16.3c-4.6,2.5-10.3,0.7-12.8-3.9L32.3,54.4l47.2-25.1l28.2,52.9
				C110.1,86.8,108.4,92.5,103.8,94.9z"/>
		</g>
		<g>
			<g>
				<path class="st0" d="M26,65l9.4-5l3.4,6.3L30,71c0,0-5.9,3.2-2.3,9.9c3.6,6.8,9.1,17.1,9.1,17.1s2.8,7.3,10.6,3.2
					c3.8-2,6.9-3.7,7.7-4.1l3.4,6.3l-9.4,5c-6.3,3.4-14.2,1-17.6-5.4L20.6,82.7C17.2,76.3,19.6,68.4,26,65z"/>
			</g>
		</g>
		<g>
			<path class="st2" d="M71.6,45.1l8.8-4.7l20.4,38.3l0,0c0,0,0,0.1,0,0.1c1.3,2.4,0.4,5.5-2.1,6.8c-2.4,1.3-5.5,0.4-6.8-2.1
				c0,0,0-0.1,0-0.1l0,0L71.6,45.1z"/>
		</g>
		<g>
			<path class="st2" d="M50,56.6l-8.8,4.7l20.4,38.3l0,0c0,0,0,0.1,0,0.1c1.3,2.4,4.3,3.4,6.8,2.1c2.4-1.3,3.4-4.3,2.1-6.8
				c0,0,0-0.1,0-0.1l0,0L50,56.6z"/>
		</g>
		<g>
			<path class="st2" d="M56.4,53.2l8.8-4.7l20.4,38.3l0,0c0,0,0,0.1,0,0.1c1.3,2.4,0.4,5.5-2.1,6.8c-2.4,1.3-5.5,0.4-6.8-2.1
				c0,0,0-0.1,0-0.1l0,0L56.4,53.2z"/>
		</g>
		<g>
			<path class="st0" d="M32.2,54.2l28.3,53.1c2.5,4.6,8.2,6.3,12.8,3.9l30.5-16.3c4.6-2.5,6.3-8.2,3.9-12.8L79.4,29.1l2.6-1.4
				l29.3,55c2.7,5.1,0.8,11.4-4.3,14.2l-33.8,18c-5.1,2.7-11.4,0.8-14.2-4.3l-29.3-55L32.2,54.2z"/>
		</g>
		<g class="st3">
			<g>
				<path class="st4" d="M107.8,96.3c-0.3,0.2-0.6,0.4-0.9,0.5l-33.8,18c-5.1,2.7-11.4,0.8-14.2-4.3L42.9,80.4
					C42.9,80.4,68.1,111.8,107.8,96.3z"/>
			</g>
		</g>
		<g>
			<polygon class="st5" points="32.3,54.4 79.4,29.1 35.3,60 			"/>
		</g>
		<g>
			<g>
				<path class="st6" d="M16.4,50.7C15,47,16.2,43,19,40.5c-2.8-4.9-2.3-11.3,1.7-15.7c3.9-4.3,9.9-5.5,15-3.4
					c0.6-1.6,1.8-3,3.4-3.8c1.7-0.9,3.7-1.1,5.4-0.6C44,11.4,46.8,5.9,52,3.1C58.9-0.6,67.5,2,71.2,8.9c0.6,1,1,2.1,1.2,3.2
					c0.7-0.6,1.5-1,2.4-1.4c4.8-1.8,10,0.7,11.8,5.4c1.8,4.8-0.1,9.2-4.7,11.5L29.1,56.1c-0.3,0.1-0.5,0.2-0.8,0.3
					C23.6,58.1,18.2,55.4,16.4,50.7z"/>
			</g>
			<g>
				<path class="st7" d="M19,40.6L19,40.6c0,0,13.8,11.9,62.9-12.9c-12.8,6.9-52.8,28.4-52.8,28.4c-0.3,0.1-0.5,0.2-0.8,0.3
					c-4.8,1.8-10.2-1-11.9-5.7C15,47,16.2,43,19,40.6z"/>
			</g>
			<g>
				<path class="st8" d="M49.1,8c-0.1,0-0.1,0.1-0.2,0.1c1-1.2,2.3-2.3,3.8-3.1c6-3.2,13.4-0.9,16.6,5c0.8,1.4,1.2,3,1.4,4.5
					C66.5,6.8,56.9,3.9,49.1,8z"/>
			</g>
		</g>
	</g>
	<g>
		<g>
			<path class="st0" d="M394.4,66.3l-28,52.5c-2.2,4.2-7.4,5.8-11.6,3.5l-27.7-14.7c-4.2-2.2-5.8-7.4-3.5-11.6l28-52.5l-2.3-1.2
				l-28.9,54.3c-2.5,4.6-0.7,10.4,3.9,12.8l30.7,16.3c4.6,2.5,10.4,0.7,12.8-3.9l28.9-54.3L394.4,66.3z"/>
		</g>
		<g>
			<path class="st1" d="M327.1,107.7l27.7,14.7c4.2,2.2,9.4,0.6,11.6-3.5l25.6-48l-42.8-22.8l-25.6,48
				C321.4,100.3,323,105.4,327.1,107.7z"/>
		</g>
		<g>
			<g>
				<path class="st0" d="M397.8,80.6l-8.5-4.5l-3.1,5.7l7.9,4.2c0,0,5.4,2.9,2.1,9c-3.3,6.1-8.3,15.5-8.3,15.5s-2.6,6.6-9.6,2.9
					c-3.5-1.9-6.2-3.3-7-3.7l-3,5.7l8.5,4.5c5.8,3.1,12.9,0.9,16-4.9l9.8-18.5C405.7,90.8,403.5,83.6,397.8,80.6z"/>
			</g>
		</g>
		<g>
			<path class="st2" d="M356.4,62.5l-8-4.3L329.8,93l0,0c0,0,0,0,0,0.1c-1.2,2.2-0.3,5,1.9,6.2c2.2,1.2,5,0.3,6.2-1.9c0,0,0,0,0-0.1
				l0,0L356.4,62.5z"/>
		</g>
		<g>
			<path class="st2" d="M375.9,72.9l8,4.3l-18.5,34.8l0,0c0,0,0,0,0,0.1c-1.2,2.2-3.9,3.1-6.2,1.9c-2.2-1.2-3.1-3.9-1.9-6.2
				c0,0,0,0,0-0.1l0,0L375.9,72.9z"/>
		</g>
		<g>
			<path class="st2" d="M370.2,69.8l-8-4.3l-18.5,34.8l0,0c0,0,0,0,0,0.1c-1.2,2.2-0.3,5,1.9,6.2c2.2,1.2,5,0.3,6.2-1.9
				c0,0,0,0,0-0.1l0,0L370.2,69.8z"/>
		</g>
		<g>
			<path class="st0" d="M392.1,70.7l-25.7,48.2c-2.2,4.2-7.4,5.8-11.6,3.5l-27.7-14.7c-4.2-2.2-5.8-7.4-3.5-11.6l25.7-48.2l-2.3-1.2
				l-26.6,49.9c-2.5,4.6-0.7,10.4,3.9,12.8l30.7,16.3c4.6,2.5,10.4,0.7,12.8-3.9L394.4,72L392.1,70.7z"/>
		</g>
		<g class="st3">
			<g>
				<path class="st4" d="M323.5,108.9c0.3,0.2,0.5,0.3,0.8,0.5l30.7,16.3c4.6,2.5,10.4,0.7,12.8-3.9l14.6-27.4
					C382.4,94.5,359.5,123,323.5,108.9z"/>
			</g>
		</g>
		<g>
			<polygon class="st5" points="392,70.9 349.3,47.9 389.2,76 			"/>
		</g>
		<g>
			<g>
				<path class="st6" d="M406.4,67.5c1.2-3.4,0.2-7-2.4-9.2c2.6-4.5,2.1-10.2-1.5-14.2c-3.5-3.9-9-5-13.6-3.1
					c-0.6-1.4-1.6-2.7-3.1-3.5c-1.6-0.8-3.3-1-4.9-0.6c0.5-5-2-10.1-6.8-12.6c-6.3-3.3-14.1-1-17.4,5.3c-0.5,0.9-0.9,1.9-1.1,2.9
					c-0.7-0.5-1.4-0.9-2.2-1.2c-4.3-1.6-9.1,0.6-10.7,4.9c-1.6,4.3,0.1,8.4,4.3,10.4l47.9,25.7c0.2,0.1,0.5,0.2,0.7,0.3
					C399.9,74.3,404.8,71.8,406.4,67.5z"/>
			</g>
			<g>
				<path class="st7" d="M404.1,58.3L404.1,58.3c0,0-12.6,10.8-57.1-11.7c11.6,6.2,47.9,25.8,47.9,25.8c0.2,0.1,0.5,0.2,0.7,0.3
					c4.3,1.6,9.2-0.9,10.8-5.2C407.7,64.2,406.6,60.5,404.1,58.3z"/>
			</g>
			<g>
				<path class="st8" d="M376.7,28.8c0.1,0,0.1,0.1,0.2,0.1c-0.9-1.1-2.1-2.1-3.4-2.8c-5.4-2.9-12.1-0.8-15,4.6
					c-0.7,1.3-1.1,2.7-1.2,4.1C361,27.7,369.7,25.1,376.7,28.8z"/>
			</g>
		</g>
	</g>
	<g>
		<g>
			<path class="st9" d="M292.8,104.7c12-3.3,19.6-15.3,17.4-27.8c-0.3-1.9-0.9-3.7-1.6-5.3l-13.4-32.3l-2.5,0.4l-0.4,0.1l-13.2,2.4
				l-12.9,2.3l-0.8,0.1l-2.1,0.4l-1.3,35c-0.1,1.8,0,3.7,0.4,5.6c2.2,12.4,13.4,20.9,25.6,20.1l4.1,22.7c-3.1,0.9-8.7,2.8-14.2,5.9
				l0.4,1.9l17.4-3.1l17.4-3.1l-0.4-1.9c-6.5-1-12.5-0.8-15.7-0.5L292.8,104.7z"/>
		</g>
		<g>
			<path class="st10" d="M304.7,69.4l-39.8,7.2l-0.1,2.6c-0.1,1.6,0,3.2,0.3,4.9c2.1,11.7,13.2,19.4,24.8,17.3
				c11.6-2.1,19.3-13.2,17.2-24.9c-0.3-1.6-0.8-3.2-1.4-4.7L304.7,69.4z"/>
		</g>
		<g class="st3">
			<g>
				<path class="st4" d="M310.2,76.9c-0.3-1.9-0.9-3.7-1.6-5.3l-7.4-18c0,0,9.6,38.3-31.3,45.6l0,0c4.8,4.4,11.3,6.8,18.1,6.3
					l4.1,22.7c-3.1,0.9-8.7,2.8-14.2,5.9l0.4,1.9l17.4-3.1l17.4-3.1l-0.4-1.9c-6.5-1-12.5-0.8-15.7-0.5l-4.1-22.6
					C304.8,101.4,312.5,89.4,310.2,76.9z"/>
			</g>
		</g>
		<g>
			<path class="st11" d="M265.5,67.8l0.8-16.2c0.1-2.6,2-4.8,4.6-5.2l4.5-0.8C275.4,45.6,267.3,48.9,265.5,67.8z"/>
		</g>
		<g class="st3">
			<g>
				<path class="st4" d="M312.6,127.8c-6.3-1-12.2-0.8-15.4-0.5c0,0,8.3-0.1,12.6,3.1l3.2-0.6L312.6,127.8z"/>
			</g>
		</g>
	</g>
	<g>
		<g>
			<polygon class="st12" points="185.8,135.7 185.5,128.4 170,122.9 168.7,128 177.1,134.2 166.4,154.9 158.9,155.2 158.4,159.4 
				153.6,177.3 169.4,184.6 172.9,154.8 186.1,142 			"/>
		</g>
	</g>
	<g>
		<polygon class="st12" points="167.4,127.9 174.1,135.1 164.8,151.4 157.4,151 154.6,144.7 163.7,127.6 		"/>
	</g>
	<g>
		<polygon class="st13" points="18.9,160.5 25.2,113.5 10.2,96.4 15.7,84 32.3,81.1 33.3,86.9 25.5,91.9 32.3,104.4 36.3,108.1 
			47.5,109.1 42.8,117.1 45.9,160.5 		"/>
	</g>
	<g>
		<polygon class="st13" points="38.3,84.6 29.7,91.1 36.2,103.5 46.5,105 47.5,98.2 		"/>
	</g>
	<g>
		<polygon class="st14" points="120.3,260.5 148.1,171.5 174.1,184.6 169.9,260.5 		"/>
	</g>
	<g>
		<path class="st15" d="M301.8,119.8l0.8-13.7l-2.9-4.1l-5.7,2.3l-0.1,0L265.8,94l-4.2,6l16,15.8l10.2,6.8c0,0-5.8,65.4-4.7,65.1
			c1.1-0.3,28.6-0.8,28.6-0.8S303.6,137.2,301.8,119.8z"/>
	</g>
	<g>
		<g>
			<polygon class="st16" points="59.6,260.5 50.6,155.4 14.3,148.1 -0.6,260.5 			"/>
		</g>
		<g>
			<polygon class="st17" points="47.5,146.3 18.4,138.4 17,148.6 47.5,154.9 			"/>
		</g>
	</g>
	<g>
		<polygon class="st18" points="268.7,260.5 282.3,157.6 311.7,161.3 321.7,260.5 		"/>
	</g>
	<g>
		<path class="st19" d="M393.1,126.9l3.1-9.6l2.3-3.9l-3.4-13.5l-3,1.5l0-0.1l-4.9-0.6l-2.8,5l-2-2.5l-4.7,0.5l-0.8,2.5l-1.4-3.6
			l-3.6,1.9l2.1,5l-0.2,0.1l-1.5,13l0.8,3.8l0.6,6.1L359.5,192l39.2-1.8l-6.6-60.3L393.1,126.9z"/>
	</g>
	<g>
		<polygon class="st20" points="356.4,190.1 401.3,190.1 403.9,224.8 413.7,260.5 345.9,260.5 		"/>
	</g>
	<g>
		<path class="st21" d="M278.5,186.8c0,0-7.2-28.9-8.5-30.8c-1.3-1.8,8.7-4.7,8.7-4.7s5,6.6,10.2,4.7c5.3-1.8,8.4,0.8,10.5,1.6
			s8.7-2.9,9.7-3.9c1.1-1.1,10.8,4.5,10.2,6c-0.5,1.6-5.7,20.7-5.7,20.7L278.5,186.8z"/>
	</g>
	<g>
		<g>
			<g>
				<path class="st9" d="M223.3,68c11.5,4.6,24.9-0.3,30.7-11.7c0.9-1.7,1.5-3.5,2-5.2l8.9-33.9l-2.3-1.2l-0.4-0.2l-11.9-6.1
					l-11.6-5.9l-0.7-0.4l-1.9-1l-22.2,27.1c-1.2,1.4-2.2,3-3.1,4.7c-5.7,11.2-2,24.8,8.3,31.5l-10.5,20.5c-3-1.2-8.6-3-14.9-3.9
					l-0.9,1.8l15.7,8l15.7,8l0.9-1.8c-4.6-4.7-9.5-8.2-12.2-9.9L223.3,68z"/>
			</g>
			<g>
				<path class="st10" d="M254.1,47L218,28.7l-1.6,2c-1,1.2-1.9,2.6-2.7,4.1c-5.4,10.6-1.2,23.4,9.3,28.8s23.4,1.1,28.8-9.4
					c0.8-1.5,1.3-3,1.7-4.6L254.1,47z"/>
			</g>
			<g class="st3">
				<g>
					<path class="st4" d="M253.9,56.3c0.9-1.7,1.5-3.5,2-5.2l4.9-18.8c0,0-15.5,36.3-52.5,17.4l0,0c1.2,6.4,4.9,12.2,10.6,16
						l-10.5,20.5c-3-1.2-8.6-3-14.9-3.9l-0.9,1.8l15.7,8l15.7,8l0.9-1.8c-4.6-4.7-9.5-8.2-12.2-9.9L223.3,68
						C234.8,72.6,248.2,67.6,253.9,56.3z"/>
				</g>
			</g>
			<g>
				<path class="st11" d="M223.8,22.1l10.4-12.4c1.7-2,4.5-2.6,6.8-1.4l4.1,2.1C245.1,10.4,236.7,8.1,223.8,22.1z"/>
			</g>
			<g class="st3">
				<g>
					<path class="st4" d="M225,98.3c-4.4-4.6-9.2-8-11.9-9.7c0,0,6.7,4.9,8.2,10l2.9,1.5L225,98.3z"/>
				</g>
			</g>
		</g>
		<g>
			<polygon class="st22" points="217.2,88.5 210.1,72.7 210.1,55.5 215.9,59.1 219.2,70.5 254,54.6 257.4,58.6 234.5,88.5 
				239.3,154.4 208.5,154.4 			"/>
		</g>
		<g>
			<polygon class="st23" points="192.8,260.5 199.1,137.4 211.4,124.7 238.5,132.9 248.2,145 256.8,260.5 			"/>
		</g>
		<g>
			<path class="st24" d="M215.9,91.1c0,0,8.4,5,20,0.8l0.5,4.3c0,0-11.3,4.5-21.3-1L215.9,91.1z"/>
		</g>
		<g>
			<polygon class="st25" points="211.4,124.7 212.7,112.9 238.5,117.1 238.5,132.9 			"/>
		</g>
		<g>
			<polygon class="st26" points="213.9,113.1 213,125.2 215.2,125.9 215.8,113.4 			"/>
		</g>
		<g>
			<polygon class="st26" points="217.8,113.7 216.8,126.4 218.8,127 219.6,114 			"/>
		</g>
		<g>
			<polygon class="st26" points="221.5,114.4 221.5,127.8 223.5,128.4 223.3,114.6 			"/>
		</g>
		<g>
			<polygon class="st26" points="225.3,115 225,128.9 227,129.5 227.7,115.4 			"/>
		</g>
		<g>
			<polygon class="st26" points="229.8,115.8 229.8,130.4 232.2,131.1 232.2,116.1 			"/>
		</g>
		<g>
			<polygon class="st26" points="234.1,116.5 234.1,131.7 236.4,132.3 236.8,116.9 			"/>
		</g>
	</g>
</g>
</svg>
