<?xml version="1.0" encoding="utf-8"?>
<!-- Generator: Adobe Illustrator 22.1.0, SVG Export Plug-In . SVG Version: 6.00 Build 0)  -->
<svg version="1.1" id="Lager_1" xmlns="http://www.w3.org/2000/svg" xmlns:xlink="http://www.w3.org/1999/xlink" x="0px" y="0px"
	 viewBox="0 0 764.7 478" style="enable-background:new 0 0 764.7 478;" xml:space="preserve">
<style type="text/css">
	.st0{fill:#FFFFFF;}
	.st1{font-family:'LapsusPro-Bold';}
	.st2{font-size:86.5277px;}
	.st3{letter-spacing:1;}
	.st4{fill:#673F4C;}
	.st5{fill:#F7AF76;}
	.st6{fill:#F28C5E;}
	.st7{opacity:0.2;fill:#F28C5E;}
	.st8{opacity:0.3;fill:#55313C;}
	.st9{opacity:0.5;fill:#FFFFFF;}
	.st10{opacity:0.3;fill:#FFFFFF;}
	.st11{clip-path:url(#XMLID_19_);fill:#EC6663;}
	.st12{clip-path:url(#XMLID_19_);fill:#FFFFFF;}
</style>
<text transform="matrix(1 0 0 1.16 0.1729 448.874)" class="st0 st1 st2 st3">NEVER HAVE I EVER</text>
<g id="XMLID_1754_">
	<path id="XMLID_1553_" class="st4" d="M488.3,207.1H285.4V81.9c0-12.8,10.4-23.2,23.2-23.2h156.6c12.8,0,23.2,10.4,23.2,23.2V207.1
		z"/>
	<path id="XMLID_1550_" class="st5" d="M411.3,300.4h-49c-33.1,0-59.9-26.8-59.9-59.9V118.7c0-33.1,26.8-59.9,59.9-59.9h49
		c33.1,0,59.9,26.8,59.9,59.9v121.8C471.2,273.5,444.4,300.4,411.3,300.4z"/>
	<g id="XMLID_1547_">
		
			<ellipse id="XMLID_1549_" transform="matrix(0.7071 -0.7071 0.7071 0.7071 -60.2537 268.786)" class="st5" cx="294.3" cy="207.1" rx="24.9" ry="24.9"/>
		
			<ellipse id="XMLID_1548_" transform="matrix(0.8519 -0.5237 0.5237 0.8519 -37.4784 281.7098)" class="st5" cx="479.4" cy="207.1" rx="24.9" ry="24.9"/>
	</g>
	<path id="XMLID_1544_" class="st6" d="M302.7,189.8c-9.6,0-17.3,7.8-17.3,17.3c0,9.6,7.8,17.3,17.3,17.3V189.8z"/>
	<path id="XMLID_1541_" class="st6" d="M471,189.8c9.6,0,17.3,7.8,17.3,17.3c0,9.6-7.8,17.3-17.3,17.3V189.8z"/>
	<g id="XMLID_1537_">
		<path id="XMLID_1538_" class="st6" d="M386.9,293L386.9,293c-39.4,0-72.7-26.4-83.1-62.5c6.9,39.7,41.5,69.8,83.1,69.8h0
			c41.6,0,76.2-30.2,83.1-69.8C459.5,266.6,426.3,293,386.9,293z"/>
	</g>
	<path id="XMLID_1534_" class="st7" d="M302.7,189.8c-9.6,0-17.3,7.8-17.3,17.3h17.3V189.8z"/>
	<path id="XMLID_1531_" class="st7" d="M471,189.8c9.6,0,17.3,7.8,17.3,17.3H471V189.8z"/>
	<path id="XMLID_1519_" class="st6" d="M400.4,271.7c0,4.5-6.1,8.2-13.6,8.2c-7.5,0-13.6-3.7-13.6-8.2c0-4.5,6.1,0,13.6,0
		C394.3,271.7,400.4,267.1,400.4,271.7z"/>
	<path id="XMLID_1501_" class="st4" d="M366.5,0C308,0,260.5,47.5,260.5,106.1h212.2C472.6,47.5,425.1,0,366.5,0z"/>
	<path id="XMLID_1498_" class="st4" d="M452.9,65.2c0,14.6,11.9,26.5,26.5,26.5v-53C464.7,38.7,452.9,50.5,452.9,65.2z"/>
	<path id="XMLID_1495_" class="st6" d="M311,106.1c0.3,0.1,68.4,15.4,99.5,10.9c31.1-4.5,39.1,5.4,39.8,16
		c0.7,10.6,13.5,50.7,20.6,56.8c0.1,0.1,0.2,0.1,0.3,0.2v-46.8c0-17.5-5.3-33.7-14.4-47.2L311,106.1L311,106.1z"/>
	<path id="XMLID_1494_" class="st8" d="M304.7,123.7c1.5-6.2,3.6-12.1,6.3-17.6h-25.7v17.6H304.7z"/>
	<g id="XMLID_1525_">
		
			<ellipse id="XMLID_1528_" transform="matrix(0.7071 -0.7071 0.7071 0.7071 58.304 233.5323)" class="st9" cx="311.1" cy="46.4" rx="13.2" ry="13.2"/>
		<path id="XMLID_1527_" class="st10" d="M379.8,19.1c32,0,60.7,14.2,80.2,36.6C442,22.5,406.9,0,366.5,0
			C308,0,260.5,47.5,260.5,106.1h15C284.4,56.6,327.7,19.1,379.8,19.1z"/>
	</g>
	<path id="XMLID_1516_" class="st4" d="M330.2,118.1c0-4.7,6.3-8.5,14.1-8.5c7.8,0,14.1,3.8,14.1,8.5c0,4.7-6.3,0-14.1,0
		C336.5,118.1,330.2,122.9,330.2,118.1z"/>
	<path id="XMLID_1513_" class="st4" d="M415.4,118.1c0-4.7,6.3-8.5,14.1-8.5c7.8,0,14.1,3.8,14.1,8.5c0,4.7-6.3,0-14.1,0
		C421.7,118.1,415.4,122.9,415.4,118.1z"/>
	<path id="XMLID_1510_" class="st6" d="M374,150.7c0-4.3,5.8-7.8,12.9-7.8c7.1,0,12.9,3.5,12.9,7.8s-5.8,0-12.9,0
		C379.7,150.7,374,155,374,150.7z"/>
	<path id="XMLID_953_" class="st4" d="M387.8,260.8L387.8,260.8c-15.2,0-27.6-12.4-27.6-27.6v-46.6c0-15.2,12.4-27.6,27.6-27.6l0,0
		c15.2,0,27.6,12.4,27.6,27.6v46.6C415.4,248.4,403,260.8,387.8,260.8z"/>
	<path id="XMLID_959_" class="st4" d="M387.8,260.8L387.8,260.8c-15.2,0-27.6-12.4-27.6-27.6v-46.6c0-15.2,12.4-27.6,27.6-27.6l0,0
		c15.2,0,27.6,12.4,27.6,27.6v46.6C415.4,248.4,403,260.8,387.8,260.8z"/>
	<g id="XMLID_1508_">
		<defs>
			<path id="XMLID_1505_" d="M387.8,260.8L387.8,260.8c-15.2,0-27.6-12.4-27.6-27.6v-46.6c0-15.2,12.4-27.6,27.6-27.6l0,0
				c15.2,0,27.6,12.4,27.6,27.6v46.6C415.4,248.4,403,260.8,387.8,260.8z"/>
		</defs>
		<clipPath id="XMLID_19_">
			<use xlink:href="#XMLID_1505_"  style="overflow:visible;"/>
		</clipPath>
		<path id="XMLID_1511_" class="st11" d="M387.8,325.7L387.8,325.7c-15.2,0-27.6-12.4-27.6-27.6v-46.6c0-15.2,12.4-27.6,27.6-27.6
			l0,0c15.2,0,27.6,12.4,27.6,27.6v46.6C415.4,313.3,403,325.7,387.8,325.7z"/>
		<rect id="XMLID_518_" x="302.5" y="120.2" class="st12" width="150.4" height="62"/>
	</g>
	<circle id="XMLID_1506_" class="st0" cx="334.9" cy="148.3" r="22.5"/>
	<circle id="XMLID_1523_" class="st0" cx="435.1" cy="148.3" r="22.5"/>
	<path id="XMLID_1507_" class="st4" d="M341.5,148.3c0,3.7-3,6.6-6.6,6.6c-3.7,0-6.6-3-6.6-6.6c0-3.7,3-6.6,6.6-6.6
		C338.6,141.7,341.5,144.7,341.5,148.3z"/>
	<path id="XMLID_1526_" class="st4" d="M441.7,148.3c0,3.7-3,6.6-6.6,6.6s-6.6-3-6.6-6.6c0-3.7,3-6.6,6.6-6.6
		S441.7,144.7,441.7,148.3z"/>
</g>
</svg>
