<?xml version="1.0" encoding="utf-8"?>
<!-- Generator: Adobe Illustrator 22.1.0, SVG Export Plug-In . SVG Version: 6.00 Build 0)  -->
<svg version="1.1" id="Lager_1" xmlns="http://www.w3.org/2000/svg" xmlns:xlink="http://www.w3.org/1999/xlink" x="0px" y="0px"
	 viewBox="0 0 381.8 381.8" style="enable-background:new 0 0 381.8 381.8;" xml:space="preserve">
<style type="text/css">
	.st0{fill:#FFFFFF;}
	.st1{font-family:'LapsusPro-Bold';}
	.st2{font-size:68.931px;}
	.st3{letter-spacing:1;}
	.st4{fill:#673F4C;}
	.st5{fill:#F7AF76;}
	.st6{fill:#F28C5E;}
	.st7{opacity:0.2;fill:#F28C5E;}
	.st8{opacity:0.3;fill:#55313C;}
	.st9{opacity:0.5;fill:#FFFFFF;}
	.st10{opacity:0.3;fill:#FFFFFF;}
	.st11{clip-path:url(#XMLID_19_);fill:#EC6663;}
	.st12{clip-path:url(#XMLID_19_);fill:#FFFFFF;}
</style>
<text transform="matrix(1 0 0 1.16 3.089905e-04 311.6099)"><tspan x="0" y="0" class="st0 st1 st2 st3">NEVER HAVE</tspan><tspan x="86.4" y="56.8" class="st0 st1 st2 st3">I EVER</tspan></text>
<g id="XMLID_1754_">
	<path id="XMLID_1553_" class="st4" d="M269.8,158.9h-154V69.5c0-12.8,10.4-23.2,23.2-23.2h107.7c12.8,0,23.2,10.4,23.2,23.2V158.9z
		"/>
	<path id="XMLID_1550_" class="st5" d="M202.6,229.7h-19.4c-30,0-54.3-24.3-54.3-54.3v-74.7c0-30,24.3-54.3,54.3-54.3h19.4
		c30,0,54.3,24.3,54.3,54.3v74.7C256.9,205.4,232.6,229.7,202.6,229.7z"/>
	<g id="XMLID_1547_">
		
			<ellipse id="XMLID_1549_" transform="matrix(0.7071 -0.7071 0.7071 0.7071 -76.4542 133.2777)" class="st5" cx="122.7" cy="158.9" rx="18.9" ry="18.9"/>
		
			<ellipse id="XMLID_1548_" transform="matrix(0.8519 -0.5237 0.5237 0.8519 -44.2724 161.2862)" class="st5" cx="263.1" cy="158.9" rx="18.9" ry="18.9"/>
	</g>
	<path id="XMLID_1544_" class="st6" d="M129,145.8c-7.3,0-13.2,5.9-13.2,13.2c0,7.3,5.9,13.2,13.2,13.2V145.8z"/>
	<path id="XMLID_1541_" class="st6" d="M256.7,145.8c7.3,0,13.2,5.9,13.2,13.2c0,7.3-5.9,13.2-13.2,13.2V145.8z"/>
	<g id="XMLID_1537_">
		<path id="XMLID_1538_" class="st6" d="M192.9,224.1L192.9,224.1c-29.9,0-55.1-20-63-47.4c5.2,30.1,31.5,53,63,53h0
			c31.6,0,57.8-22.9,63-53C248,204.1,222.8,224.1,192.9,224.1z"/>
	</g>
	<path id="XMLID_1534_" class="st7" d="M129,145.8c-7.3,0-13.2,5.9-13.2,13.2H129V145.8z"/>
	<path id="XMLID_1531_" class="st7" d="M256.7,145.8c7.3,0,13.2,5.9,13.2,13.2h-13.2V145.8z"/>
	<path id="XMLID_1519_" class="st6" d="M203.1,207.9c0,3.4-4.6,6.2-10.3,6.2c-5.7,0-10.3-2.8-10.3-6.2c0-3.4,4.6,0,10.3,0
		C198.5,207.9,203.1,204.5,203.1,207.9z"/>
	<path id="XMLID_1501_" class="st4" d="M177.4,1.8C133,1.8,97,37.8,97,82.3h161C257.9,37.8,221.9,1.8,177.4,1.8z"/>
	<path id="XMLID_1498_" class="st4" d="M242.9,51.2c0,11.1,9,20.1,20.1,20.1V31.1C251.9,31.1,242.9,40.1,242.9,51.2z"/>
	<path id="XMLID_1495_" class="st6" d="M135.3,82.3c0.2,0,51.9,11.7,75.5,8.3c23.6-3.4,29.6,4.1,30.2,12.1
		c0.6,8.1,10.2,38.5,15.7,43.1c0.1,0.1,0.1,0.1,0.2,0.1v-35.5c0-13.3-4-25.6-10.9-35.8L135.3,82.3L135.3,82.3z"/>
	<path id="XMLID_1494_" class="st8" d="M130.6,95.7c1.1-4.7,2.7-9.2,4.8-13.4h-19.5v13.4H130.6z"/>
	<g id="XMLID_1525_">
		
			<ellipse id="XMLID_1528_" transform="matrix(0.7071 -0.7071 0.7071 0.7071 13.492 106.5317)" class="st9" cx="135.3" cy="37" rx="10" ry="10"/>
		<path id="XMLID_1527_" class="st10" d="M187.5,16.3c24.3,0,46.1,10.8,60.8,27.8c-13.6-25.2-40.2-42.3-70.9-42.3
			C133,1.8,97,37.8,97,82.3h11.4C115.1,44.7,148,16.3,187.5,16.3z"/>
	</g>
	<path id="XMLID_1516_" class="st4" d="M149.9,91.4c0-3.6,4.8-6.5,10.7-6.5c5.9,0,10.7,2.9,10.7,6.5c0,3.6-4.8,0-10.7,0
		C154.6,91.4,149.9,95,149.9,91.4z"/>
	<path id="XMLID_1513_" class="st4" d="M214.5,91.4c0-3.6,4.8-6.5,10.7-6.5c5.9,0,10.7,2.9,10.7,6.5c0,3.6-4.8,0-10.7,0
		C219.3,91.4,214.5,95,214.5,91.4z"/>
	<path id="XMLID_1510_" class="st6" d="M183.1,116.1c0-3.3,4.4-5.9,9.8-5.9c5.4,0,9.8,2.7,9.8,5.9s-4.4,0-9.8,0
		C187.4,116.1,183.1,119.4,183.1,116.1z"/>
	<path id="XMLID_953_" class="st4" d="M193.6,199.6L193.6,199.6c-11.6,0-20.9-9.4-20.9-20.9v-35.4c0-11.6,9.4-20.9,20.9-20.9l0,0
		c11.6,0,20.9,9.4,20.9,20.9v35.4C214.5,190.3,205.1,199.6,193.6,199.6z"/>
	<path id="XMLID_959_" class="st4" d="M193.6,199.6L193.6,199.6c-11.6,0-20.9-9.4-20.9-20.9v-35.4c0-11.6,9.4-20.9,20.9-20.9l0,0
		c11.6,0,20.9,9.4,20.9,20.9v35.4C214.5,190.3,205.1,199.6,193.6,199.6z"/>
	<g id="XMLID_1508_">
		<defs>
			<path id="XMLID_1505_" d="M193.6,199.6L193.6,199.6c-11.6,0-20.9-9.4-20.9-20.9v-35.4c0-11.6,9.4-20.9,20.9-20.9l0,0
				c11.6,0,20.9,9.4,20.9,20.9v35.4C214.5,190.3,205.1,199.6,193.6,199.6z"/>
		</defs>
		<clipPath id="XMLID_19_">
			<use xlink:href="#XMLID_1505_"  style="overflow:visible;"/>
		</clipPath>
		<path id="XMLID_1511_" class="st11" d="M193.6,248.9L193.6,248.9c-11.6,0-20.9-9.4-20.9-20.9v-35.4c0-11.6,9.4-20.9,20.9-20.9l0,0
			c11.6,0,20.9,9.4,20.9,20.9v35.4C214.5,239.5,205.1,248.9,193.6,248.9z"/>
		<rect id="XMLID_518_" x="128.8" y="93" class="st12" width="114.1" height="47"/>
	</g>
	<circle id="XMLID_1506_" class="st0" cx="153.4" cy="114.3" r="17.1"/>
	<circle id="XMLID_1523_" class="st0" cx="229.4" cy="114.3" r="17.1"/>
	<path id="XMLID_1507_" class="st4" d="M158.5,114.3c0,2.8-2.2,5-5,5c-2.8,0-5-2.2-5-5c0-2.8,2.2-5,5-5
		C156.2,109.3,158.5,111.6,158.5,114.3z"/>
	<path id="XMLID_1526_" class="st4" d="M234.5,114.3c0,2.8-2.2,5-5,5s-5-2.2-5-5c0-2.8,2.2-5,5-5S234.5,111.6,234.5,114.3z"/>
</g>
</svg>
